<?xml version="1.0" encoding="UTF-8"?>
<!DOCTYPE svg PUBLIC "-//W3C//DTD SVG 1.1//EN" "http://www.w3.org/Graphics/SVG/1.1/DTD/svg11.dtd">
<svg version="1.2" viewBox="1433 5121 31020 9794" preserveAspectRatio="xMidYMid" fill-rule="evenodd" stroke-width="28.222" stroke-linejoin="round" xmlns="http://www.w3.org/2000/svg" xmlns:ooo="http://xml.openoffice.org/svg/export" xmlns:xlink="http://www.w3.org/1999/xlink" xmlns:presentation="http://sun.com/xmlns/staroffice/presentation" xmlns:smil="http://www.w3.org/2001/SMIL20/" xmlns:anim="urn:oasis:names:tc:opendocument:xmlns:animation:1.0" xml:space="preserve">
 <defs class="EmbeddedBulletChars">
  <g id="bullet-char-template-57356" transform="scale(0.00048828125,-0.00048828125)">
   <path d="M 580,1141 L 1163,571 580,0 -4,571 580,1141 Z"/>
  </g>
  <g id="bullet-char-template-57354" transform="scale(0.00048828125,-0.00048828125)">
   <path d="M 8,1128 L 1137,1128 1137,0 8,0 8,1128 Z"/>
  </g>
  <g id="bullet-char-template-10146" transform="scale(0.00048828125,-0.00048828125)">
   <path d="M 174,0 L 602,739 174,1481 1456,739 174,0 Z M 1358,739 L 309,1346 659,739 1358,739 Z"/>
  </g>
  <g id="bullet-char-template-10132" transform="scale(0.00048828125,-0.00048828125)">
   <path d="M 2015,739 L 1276,0 717,0 1260,543 174,543 174,936 1260,936 717,1481 1274,1481 2015,739 Z"/>
  </g>
  <g id="bullet-char-template-10007" transform="scale(0.00048828125,-0.00048828125)">
   <path d="M 0,-2 C -7,14 -16,27 -25,37 L 356,567 C 262,823 215,952 215,954 215,979 228,992 255,992 264,992 276,990 289,987 310,991 331,999 354,1012 L 381,999 492,748 772,1049 836,1024 860,1049 C 881,1039 901,1025 922,1006 886,937 835,863 770,784 769,783 710,716 594,584 L 774,223 C 774,196 753,168 711,139 L 727,119 C 717,90 699,76 672,76 641,76 570,178 457,381 L 164,-76 C 142,-110 111,-127 72,-127 30,-127 9,-110 8,-76 1,-67 -2,-52 -2,-32 -2,-23 -1,-13 0,-2 Z"/>
  </g>
  <g id="bullet-char-template-10004" transform="scale(0.00048828125,-0.00048828125)">
   <path d="M 285,-33 C 182,-33 111,30 74,156 52,228 41,333 41,471 41,549 55,616 82,672 116,743 169,778 240,778 293,778 328,747 346,684 L 369,508 C 377,444 397,411 428,410 L 1163,1116 C 1174,1127 1196,1133 1229,1133 1271,1133 1292,1118 1292,1087 L 1292,965 C 1292,929 1282,901 1262,881 L 442,47 C 390,-6 338,-33 285,-33 Z"/>
  </g>
  <g id="bullet-char-template-9679" transform="scale(0.00048828125,-0.00048828125)">
   <path d="M 813,0 C 632,0 489,54 383,161 276,268 223,411 223,592 223,773 276,916 383,1023 489,1130 632,1184 813,1184 992,1184 1136,1130 1245,1023 1353,916 1407,772 1407,592 1407,412 1353,268 1245,161 1136,54 992,0 813,0 Z"/>
  </g>
  <g id="bullet-char-template-8226" transform="scale(0.00048828125,-0.00048828125)">
   <path d="M 346,457 C 273,457 209,483 155,535 101,586 74,649 74,723 74,796 101,859 155,911 209,963 273,989 346,989 419,989 480,963 531,910 582,859 608,796 608,723 608,648 583,586 532,535 482,483 420,457 346,457 Z"/>
  </g>
  <g id="bullet-char-template-8211" transform="scale(0.00048828125,-0.00048828125)">
   <path d="M -4,459 L 1135,459 1135,606 -4,606 -4,459 Z"/>
  </g>
  <g id="bullet-char-template-61548" transform="scale(0.00048828125,-0.00048828125)">
   <path d="M 173,740 C 173,903 231,1043 346,1159 462,1274 601,1332 765,1332 928,1332 1067,1274 1183,1159 1299,1043 1357,903 1357,740 1357,577 1299,437 1183,322 1067,206 928,148 765,148 601,148 462,206 346,322 231,437 173,577 173,740 Z"/>
  </g>
 </defs>
 <g ooo:name="page2" class="Page">
  <g class="Group">
   <g class="com.sun.star.drawing.CustomShape">
    <g id="id3">
     <rect class="BoundingBox" stroke="none" fill="none" x="25089" y="5121" width="7364" height="9779"/>
     <defs>
      <clipPath id="clip_path_1" clipPathUnits="userSpaceOnUse">
       <path d="M 25098,5130 L 32442,5130 32442,7932 30225,7932 30225,14890 27321,14890 27321,7932 25098,7932 25098,5130 Z"/>
      </clipPath>
     </defs>
     <g clip-path="url(#clip_path_1)">
      <path fill="rgb(58,28,113)" stroke="none" d="M 25098,5130 L 32442,5130 32442,14890 25098,14890 25098,5130 Z"/>
      <path fill="rgb(60,29,113)" stroke="none" d="M 25192,14890 L 25192,5130 32442,5130 32442,14890 25192,14890 Z"/>
      <path fill="rgb(62,30,113)" stroke="none" d="M 25285,14890 L 25285,5130 32442,5130 32442,14890 25285,14890 Z"/>
      <path fill="rgb(64,31,113)" stroke="none" d="M 25378,14890 L 25378,5130 32442,5130 32442,14890 25378,14890 Z"/>
      <path fill="rgb(66,32,113)" stroke="none" d="M 25471,14890 L 25471,5130 32442,5130 32442,14890 25471,14890 Z"/>
      <path fill="rgb(68,33,113)" stroke="none" d="M 25564,14890 L 25564,5130 32442,5130 32442,14890 25564,14890 Z"/>
      <path fill="rgb(70,34,113)" stroke="none" d="M 25657,14890 L 25657,5130 32442,5130 32442,14890 25657,14890 Z"/>
      <path fill="rgb(72,35,114)" stroke="none" d="M 25750,14890 L 25750,5130 32442,5130 32442,14890 25750,14890 Z"/>
      <path fill="rgb(74,36,114)" stroke="none" d="M 25843,14890 L 25843,5130 32442,5130 32442,14890 25843,14890 Z"/>
      <path fill="rgb(76,37,114)" stroke="none" d="M 25936,14890 L 25936,5130 32442,5130 32442,14890 25936,14890 Z"/>
      <path fill="rgb(78,38,114)" stroke="none" d="M 26028,14890 L 26028,5130 32442,5130 32442,14890 26028,14890 Z"/>
      <path fill="rgb(80,39,114)" stroke="none" d="M 26121,14890 L 26121,5130 32442,5130 32442,14890 26121,14890 Z"/>
      <path fill="rgb(82,40,114)" stroke="none" d="M 26214,14890 L 26214,5130 32442,5130 32442,14890 26214,14890 Z"/>
      <path fill="rgb(84,41,114)" stroke="none" d="M 26307,14890 L 26307,5130 32442,5130 32442,14890 26307,14890 Z"/>
      <path fill="rgb(86,43,114)" stroke="none" d="M 26400,14890 L 26400,5130 32442,5130 32442,14890 26400,14890 Z"/>
      <path fill="rgb(88,44,114)" stroke="none" d="M 26493,14890 L 26493,5130 32442,5130 32442,14890 26493,14890 Z"/>
      <path fill="rgb(90,45,114)" stroke="none" d="M 26586,14890 L 26586,5130 32442,5130 32442,14890 26586,14890 Z"/>
      <path fill="rgb(92,46,114)" stroke="none" d="M 26679,14890 L 26679,5130 32442,5130 32442,14890 26679,14890 Z"/>
      <path fill="rgb(94,47,114)" stroke="none" d="M 26772,14890 L 26772,5130 32442,5130 32442,14890 26772,14890 Z"/>
      <path fill="rgb(96,48,114)" stroke="none" d="M 26865,14890 L 26865,5130 32442,5130 32442,14890 26865,14890 Z"/>
      <path fill="rgb(98,49,115)" stroke="none" d="M 26958,14890 L 26958,5130 32442,5130 32442,14890 26958,14890 Z"/>
      <path fill="rgb(100,50,115)" stroke="none" d="M 27051,14890 L 27051,5130 32442,5130 32442,14890 27051,14890 Z"/>
      <path fill="rgb(102,51,115)" stroke="none" d="M 27144,14890 L 27144,5130 32442,5130 32442,14890 27144,14890 Z"/>
      <path fill="rgb(104,52,115)" stroke="none" d="M 27237,14890 L 27237,5130 32442,5130 32442,14890 27237,14890 Z"/>
      <path fill="rgb(106,53,115)" stroke="none" d="M 27330,14890 L 27330,5130 32442,5130 32442,14890 27330,14890 Z"/>
      <path fill="rgb(108,54,115)" stroke="none" d="M 27423,14890 L 27423,5130 32442,5130 32442,14890 27423,14890 Z"/>
      <path fill="rgb(110,55,115)" stroke="none" d="M 27516,14890 L 27516,5130 32442,5130 32442,14890 27516,14890 Z"/>
      <path fill="rgb(112,56,115)" stroke="none" d="M 27609,14890 L 27609,5130 32442,5130 32442,14890 27609,14890 Z"/>
      <path fill="rgb(114,57,115)" stroke="none" d="M 27702,14890 L 27702,5130 32442,5130 32442,14890 27702,14890 Z"/>
      <path fill="rgb(116,58,115)" stroke="none" d="M 27795,14890 L 27795,5130 32442,5130 32442,14890 27795,14890 Z"/>
      <path fill="rgb(118,59,115)" stroke="none" d="M 27887,14890 L 27887,5130 32442,5130 32442,14890 27887,14890 Z"/>
      <path fill="rgb(120,60,115)" stroke="none" d="M 27980,14890 L 27980,5130 32442,5130 32442,14890 27980,14890 Z"/>
      <path fill="rgb(122,61,115)" stroke="none" d="M 28073,14890 L 28073,5130 32442,5130 32442,14890 28073,14890 Z"/>
      <path fill="rgb(124,62,116)" stroke="none" d="M 28166,14890 L 28166,5130 32442,5130 32442,14890 28166,14890 Z"/>
      <path fill="rgb(126,63,116)" stroke="none" d="M 28259,14890 L 28259,5130 32442,5130 32442,14890 28259,14890 Z"/>
      <path fill="rgb(128,64,116)" stroke="none" d="M 28352,14890 L 28352,5130 32442,5130 32442,14890 28352,14890 Z"/>
      <path fill="rgb(130,65,116)" stroke="none" d="M 28445,14890 L 28445,5130 32442,5130 32442,14890 28445,14890 Z"/>
      <path fill="rgb(132,66,116)" stroke="none" d="M 28538,14890 L 28538,5130 32442,5130 32442,14890 28538,14890 Z"/>
      <path fill="rgb(134,67,116)" stroke="none" d="M 28631,14890 L 28631,5130 32442,5130 32442,14890 28631,14890 Z"/>
      <path fill="rgb(137,69,116)" stroke="none" d="M 28724,14890 L 28724,5130 32442,5130 32442,14890 28724,14890 Z"/>
      <path fill="rgb(139,70,116)" stroke="none" d="M 28817,14890 L 28817,5130 32442,5130 32442,14890 28817,14890 Z"/>
      <path fill="rgb(141,71,116)" stroke="none" d="M 28910,14890 L 28910,5130 32442,5130 32442,14890 28910,14890 Z"/>
      <path fill="rgb(143,72,116)" stroke="none" d="M 29003,14890 L 29003,5130 32442,5130 32442,14890 29003,14890 Z"/>
      <path fill="rgb(145,73,116)" stroke="none" d="M 29096,14890 L 29096,5130 32442,5130 32442,14890 29096,14890 Z"/>
      <path fill="rgb(147,74,116)" stroke="none" d="M 29189,14890 L 29189,5130 32442,5130 32442,14890 29189,14890 Z"/>
      <path fill="rgb(149,75,116)" stroke="none" d="M 29282,14890 L 29282,5130 32442,5130 32442,14890 29282,14890 Z"/>
      <path fill="rgb(151,76,117)" stroke="none" d="M 29375,14890 L 29375,5130 32442,5130 32442,14890 29375,14890 Z"/>
      <path fill="rgb(153,77,117)" stroke="none" d="M 29468,14890 L 29468,5130 32442,5130 32442,14890 29468,14890 Z"/>
      <path fill="rgb(155,78,117)" stroke="none" d="M 29561,14890 L 29561,5130 32442,5130 32442,14890 29561,14890 Z"/>
      <path fill="rgb(157,79,117)" stroke="none" d="M 29654,14890 L 29654,5130 32442,5130 32442,14890 29654,14890 Z"/>
      <path fill="rgb(159,80,117)" stroke="none" d="M 29746,14890 L 29746,5130 32442,5130 32442,14890 29746,14890 Z"/>
      <path fill="rgb(161,81,117)" stroke="none" d="M 29839,14890 L 29839,5130 32442,5130 32442,14890 29839,14890 Z"/>
      <path fill="rgb(163,82,117)" stroke="none" d="M 29932,14890 L 29932,5130 32442,5130 32442,14890 29932,14890 Z"/>
      <path fill="rgb(165,83,117)" stroke="none" d="M 30025,14890 L 30025,5130 32442,5130 32442,14890 30025,14890 Z"/>
      <path fill="rgb(167,84,117)" stroke="none" d="M 30118,14890 L 30118,5130 32442,5130 32442,14890 30118,14890 Z"/>
      <path fill="rgb(169,85,117)" stroke="none" d="M 30211,14890 L 30211,5130 32442,5130 32442,14890 30211,14890 Z"/>
      <path fill="rgb(171,86,117)" stroke="none" d="M 30304,14890 L 30304,5130 32442,5130 32442,14890 30304,14890 Z"/>
      <path fill="rgb(173,87,117)" stroke="none" d="M 30397,14890 L 30397,5130 32442,5130 32442,14890 30397,14890 Z"/>
      <path fill="rgb(175,88,117)" stroke="none" d="M 30490,14890 L 30490,5130 32442,5130 32442,14890 30490,14890 Z"/>
      <path fill="rgb(177,89,118)" stroke="none" d="M 30583,14890 L 30583,5130 32442,5130 32442,14890 30583,14890 Z"/>
      <path fill="rgb(179,90,118)" stroke="none" d="M 30676,14890 L 30676,5130 32442,5130 32442,14890 30676,14890 Z"/>
      <path fill="rgb(181,91,118)" stroke="none" d="M 30769,14890 L 30769,5130 32442,5130 32442,14890 30769,14890 Z"/>
      <path fill="rgb(183,92,118)" stroke="none" d="M 30862,14890 L 30862,5130 32442,5130 32442,14890 30862,14890 Z"/>
      <path fill="rgb(185,93,118)" stroke="none" d="M 30955,14890 L 30955,5130 32442,5130 32442,14890 30955,14890 Z"/>
      <path fill="rgb(187,94,118)" stroke="none" d="M 31048,14890 L 31048,5130 32442,5130 32442,14890 31048,14890 Z"/>
      <path fill="rgb(189,96,118)" stroke="none" d="M 31141,14890 L 31141,5130 32442,5130 32442,14890 31141,14890 Z"/>
      <path fill="rgb(191,97,118)" stroke="none" d="M 31234,14890 L 31234,5130 32442,5130 32442,14890 31234,14890 Z"/>
      <path fill="rgb(193,98,118)" stroke="none" d="M 31327,14890 L 31327,5130 32442,5130 32442,14890 31327,14890 Z"/>
      <path fill="rgb(195,99,118)" stroke="none" d="M 31420,14890 L 31420,5130 32442,5130 32442,14890 31420,14890 Z"/>
      <path fill="rgb(197,100,118)" stroke="none" d="M 31513,14890 L 31513,5130 32442,5130 32442,14890 31513,14890 Z"/>
      <path fill="rgb(199,101,118)" stroke="none" d="M 31605,14890 L 31605,5130 32442,5130 32442,14890 31605,14890 Z"/>
      <path fill="rgb(201,102,118)" stroke="none" d="M 31698,14890 L 31698,5130 32442,5130 32442,14890 31698,14890 Z"/>
      <path fill="rgb(203,103,119)" stroke="none" d="M 31791,14890 L 31791,5130 32442,5130 32442,14890 31791,14890 Z"/>
      <path fill="rgb(205,104,119)" stroke="none" d="M 31884,14890 L 31884,5130 32442,5130 32442,14890 31884,14890 Z"/>
      <path fill="rgb(207,105,119)" stroke="none" d="M 31977,14890 L 31977,5130 32442,5130 32442,14890 31977,14890 Z"/>
      <path fill="rgb(209,106,119)" stroke="none" d="M 32070,14890 L 32070,5130 32442,5130 32442,14890 32070,14890 Z"/>
      <path fill="rgb(211,107,119)" stroke="none" d="M 32163,14890 L 32163,5130 32442,5130 32442,14890 32163,14890 Z"/>
      <path fill="rgb(213,108,119)" stroke="none" d="M 32256,14890 L 32256,5130 32442,5130 32442,14890 32256,14890 Z"/>
      <path fill="rgb(215,109,119)" stroke="none" d="M 32349,14890 L 32349,5130 32442,5130 32442,14890 32349,14890 Z"/>
     </g>
     <path fill="none" stroke="rgb(67,114,157)" stroke-width="18" stroke-linejoin="miter" d="M 25098,5130 L 32442,5130 32442,7932 30225,7932 30225,14890 27321,14890 27321,7932 25098,7932 25098,5130 Z"/>
    </g>
   </g>
   <g class="com.sun.star.drawing.CustomShape">
    <g id="id4">
     <rect class="BoundingBox" stroke="none" fill="none" x="20731" y="5121" width="7811" height="9779"/>
     <defs>
      <clipPath id="clip_path_2" clipPathUnits="userSpaceOnUse">
       <path d="M 20740,5130 L 24465,5130 C 25600,5130 26479,5411 27104,5973 27800,6602 28148,7401 28148,8369 28148,9355 27716,10187 26853,10864 L 28527,14890 25480,14890 24072,11743 24072,9234 24300,9234 C 24911,9234 25216,8972 25216,8447 25216,7985 24863,7754 24157,7754 L 23643,7754 23643,14890 20740,14890 20740,5130 Z"/>
      </clipPath>
     </defs>
     <g clip-path="url(#clip_path_2)">
      <path fill="rgb(58,28,113)" stroke="none" d="M 20740,5130 L 28527,5130 28527,14890 20740,14890 20740,5130 Z"/>
      <path fill="rgb(60,29,113)" stroke="none" d="M 20839,14890 L 20839,5130 28526,5130 28526,14890 20839,14890 Z"/>
      <path fill="rgb(62,30,113)" stroke="none" d="M 20937,14890 L 20937,5130 28526,5130 28526,14890 20937,14890 Z"/>
      <path fill="rgb(64,31,113)" stroke="none" d="M 21036,14890 L 21036,5130 28526,5130 28526,14890 21036,14890 Z"/>
      <path fill="rgb(66,32,113)" stroke="none" d="M 21134,14890 L 21134,5130 28526,5130 28526,14890 21134,14890 Z"/>
      <path fill="rgb(68,33,113)" stroke="none" d="M 21233,14890 L 21233,5130 28526,5130 28526,14890 21233,14890 Z"/>
      <path fill="rgb(70,34,113)" stroke="none" d="M 21331,14890 L 21331,5130 28526,5130 28526,14890 21331,14890 Z"/>
      <path fill="rgb(72,35,114)" stroke="none" d="M 21430,14890 L 21430,5130 28526,5130 28526,14890 21430,14890 Z"/>
      <path fill="rgb(74,36,114)" stroke="none" d="M 21528,14890 L 21528,5130 28526,5130 28526,14890 21528,14890 Z"/>
      <path fill="rgb(76,37,114)" stroke="none" d="M 21627,14890 L 21627,5130 28526,5130 28526,14890 21627,14890 Z"/>
      <path fill="rgb(78,38,114)" stroke="none" d="M 21726,14890 L 21726,5130 28526,5130 28526,14890 21726,14890 Z"/>
      <path fill="rgb(80,39,114)" stroke="none" d="M 21824,14890 L 21824,5130 28526,5130 28526,14890 21824,14890 Z"/>
      <path fill="rgb(82,40,114)" stroke="none" d="M 21923,14890 L 21923,5130 28526,5130 28526,14890 21923,14890 Z"/>
      <path fill="rgb(84,41,114)" stroke="none" d="M 22021,14890 L 22021,5130 28526,5130 28526,14890 22021,14890 Z"/>
      <path fill="rgb(86,43,114)" stroke="none" d="M 22120,14890 L 22120,5130 28526,5130 28526,14890 22120,14890 Z"/>
      <path fill="rgb(88,44,114)" stroke="none" d="M 22218,14890 L 22218,5130 28526,5130 28526,14890 22218,14890 Z"/>
      <path fill="rgb(90,45,114)" stroke="none" d="M 22317,14890 L 22317,5130 28526,5130 28526,14890 22317,14890 Z"/>
      <path fill="rgb(92,46,114)" stroke="none" d="M 22415,14890 L 22415,5130 28526,5130 28526,14890 22415,14890 Z"/>
      <path fill="rgb(94,47,114)" stroke="none" d="M 22514,14890 L 22514,5130 28526,5130 28526,14890 22514,14890 Z"/>
      <path fill="rgb(96,48,114)" stroke="none" d="M 22613,14890 L 22613,5130 28526,5130 28526,14890 22613,14890 Z"/>
      <path fill="rgb(98,49,115)" stroke="none" d="M 22711,14890 L 22711,5130 28526,5130 28526,14890 22711,14890 Z"/>
      <path fill="rgb(100,50,115)" stroke="none" d="M 22810,14890 L 22810,5130 28526,5130 28526,14890 22810,14890 Z"/>
      <path fill="rgb(102,51,115)" stroke="none" d="M 22908,14890 L 22908,5130 28526,5130 28526,14890 22908,14890 Z"/>
      <path fill="rgb(104,52,115)" stroke="none" d="M 23007,14890 L 23007,5130 28526,5130 28526,14890 23007,14890 Z"/>
      <path fill="rgb(106,53,115)" stroke="none" d="M 23105,14890 L 23105,5130 28526,5130 28526,14890 23105,14890 Z"/>
      <path fill="rgb(108,54,115)" stroke="none" d="M 23204,14890 L 23204,5130 28526,5130 28526,14890 23204,14890 Z"/>
      <path fill="rgb(110,55,115)" stroke="none" d="M 23302,14890 L 23302,5130 28526,5130 28526,14890 23302,14890 Z"/>
      <path fill="rgb(112,56,115)" stroke="none" d="M 23401,14890 L 23401,5130 28526,5130 28526,14890 23401,14890 Z"/>
      <path fill="rgb(114,57,115)" stroke="none" d="M 23500,14890 L 23500,5130 28526,5130 28526,14890 23500,14890 Z"/>
      <path fill="rgb(116,58,115)" stroke="none" d="M 23598,14890 L 23598,5130 28526,5130 28526,14890 23598,14890 Z"/>
      <path fill="rgb(118,59,115)" stroke="none" d="M 23697,14890 L 23697,5130 28526,5130 28526,14890 23697,14890 Z"/>
      <path fill="rgb(120,60,115)" stroke="none" d="M 23795,14890 L 23795,5130 28526,5130 28526,14890 23795,14890 Z"/>
      <path fill="rgb(122,61,115)" stroke="none" d="M 23894,14890 L 23894,5130 28526,5130 28526,14890 23894,14890 Z"/>
      <path fill="rgb(124,62,116)" stroke="none" d="M 23992,14890 L 23992,5130 28526,5130 28526,14890 23992,14890 Z"/>
      <path fill="rgb(126,63,116)" stroke="none" d="M 24091,14890 L 24091,5130 28526,5130 28526,14890 24091,14890 Z"/>
      <path fill="rgb(128,64,116)" stroke="none" d="M 24189,14890 L 24189,5130 28526,5130 28526,14890 24189,14890 Z"/>
      <path fill="rgb(130,65,116)" stroke="none" d="M 24288,14890 L 24288,5130 28526,5130 28526,14890 24288,14890 Z"/>
      <path fill="rgb(132,66,116)" stroke="none" d="M 24387,14890 L 24387,5130 28526,5130 28526,14890 24387,14890 Z"/>
      <path fill="rgb(134,67,116)" stroke="none" d="M 24485,14890 L 24485,5130 28526,5130 28526,14890 24485,14890 Z"/>
      <path fill="rgb(137,69,116)" stroke="none" d="M 24584,14890 L 24584,5130 28526,5130 28526,14890 24584,14890 Z"/>
      <path fill="rgb(139,70,116)" stroke="none" d="M 24682,14890 L 24682,5130 28526,5130 28526,14890 24682,14890 Z"/>
      <path fill="rgb(141,71,116)" stroke="none" d="M 24781,14890 L 24781,5130 28526,5130 28526,14890 24781,14890 Z"/>
      <path fill="rgb(143,72,116)" stroke="none" d="M 24879,14890 L 24879,5130 28526,5130 28526,14890 24879,14890 Z"/>
      <path fill="rgb(145,73,116)" stroke="none" d="M 24978,14890 L 24978,5130 28526,5130 28526,14890 24978,14890 Z"/>
      <path fill="rgb(147,74,116)" stroke="none" d="M 25077,14890 L 25077,5130 28526,5130 28526,14890 25077,14890 Z"/>
      <path fill="rgb(149,75,116)" stroke="none" d="M 25175,14890 L 25175,5130 28526,5130 28526,14890 25175,14890 Z"/>
      <path fill="rgb(151,76,117)" stroke="none" d="M 25274,14890 L 25274,5130 28526,5130 28526,14890 25274,14890 Z"/>
      <path fill="rgb(153,77,117)" stroke="none" d="M 25372,14890 L 25372,5130 28526,5130 28526,14890 25372,14890 Z"/>
      <path fill="rgb(155,78,117)" stroke="none" d="M 25471,14890 L 25471,5130 28526,5130 28526,14890 25471,14890 Z"/>
      <path fill="rgb(157,79,117)" stroke="none" d="M 25569,14890 L 25569,5130 28526,5130 28526,14890 25569,14890 Z"/>
      <path fill="rgb(159,80,117)" stroke="none" d="M 25668,14890 L 25668,5130 28526,5130 28526,14890 25668,14890 Z"/>
      <path fill="rgb(161,81,117)" stroke="none" d="M 25766,14890 L 25766,5130 28526,5130 28526,14890 25766,14890 Z"/>
      <path fill="rgb(163,82,117)" stroke="none" d="M 25865,14890 L 25865,5130 28526,5130 28526,14890 25865,14890 Z"/>
      <path fill="rgb(165,83,117)" stroke="none" d="M 25964,14890 L 25964,5130 28526,5130 28526,14890 25964,14890 Z"/>
      <path fill="rgb(167,84,117)" stroke="none" d="M 26062,14890 L 26062,5130 28526,5130 28526,14890 26062,14890 Z"/>
      <path fill="rgb(169,85,117)" stroke="none" d="M 26161,14890 L 26161,5130 28526,5130 28526,14890 26161,14890 Z"/>
      <path fill="rgb(171,86,117)" stroke="none" d="M 26259,14890 L 26259,5130 28526,5130 28526,14890 26259,14890 Z"/>
      <path fill="rgb(173,87,117)" stroke="none" d="M 26358,14890 L 26358,5130 28526,5130 28526,14890 26358,14890 Z"/>
      <path fill="rgb(175,88,117)" stroke="none" d="M 26456,14890 L 26456,5130 28526,5130 28526,14890 26456,14890 Z"/>
      <path fill="rgb(177,89,118)" stroke="none" d="M 26555,14890 L 26555,5130 28526,5130 28526,14890 26555,14890 Z"/>
      <path fill="rgb(179,90,118)" stroke="none" d="M 26653,14890 L 26653,5130 28526,5130 28526,14890 26653,14890 Z"/>
      <path fill="rgb(181,91,118)" stroke="none" d="M 26752,14890 L 26752,5130 28526,5130 28526,14890 26752,14890 Z"/>
      <path fill="rgb(183,92,118)" stroke="none" d="M 26851,14890 L 26851,5130 28526,5130 28526,14890 26851,14890 Z"/>
      <path fill="rgb(185,93,118)" stroke="none" d="M 26949,14890 L 26949,5130 28526,5130 28526,14890 26949,14890 Z"/>
      <path fill="rgb(187,94,118)" stroke="none" d="M 27048,14890 L 27048,5130 28526,5130 28526,14890 27048,14890 Z"/>
      <path fill="rgb(189,96,118)" stroke="none" d="M 27146,14890 L 27146,5130 28526,5130 28526,14890 27146,14890 Z"/>
      <path fill="rgb(191,97,118)" stroke="none" d="M 27245,14890 L 27245,5130 28526,5130 28526,14890 27245,14890 Z"/>
      <path fill="rgb(193,98,118)" stroke="none" d="M 27343,14890 L 27343,5130 28526,5130 28526,14890 27343,14890 Z"/>
      <path fill="rgb(195,99,118)" stroke="none" d="M 27442,14890 L 27442,5130 28526,5130 28526,14890 27442,14890 Z"/>
      <path fill="rgb(197,100,118)" stroke="none" d="M 27540,14890 L 27540,5130 28526,5130 28526,14890 27540,14890 Z"/>
      <path fill="rgb(199,101,118)" stroke="none" d="M 27639,14890 L 27639,5130 28526,5130 28526,14890 27639,14890 Z"/>
      <path fill="rgb(201,102,118)" stroke="none" d="M 27738,14890 L 27738,5130 28526,5130 28526,14890 27738,14890 Z"/>
      <path fill="rgb(203,103,119)" stroke="none" d="M 27836,14890 L 27836,5130 28526,5130 28526,14890 27836,14890 Z"/>
      <path fill="rgb(205,104,119)" stroke="none" d="M 27935,14890 L 27935,5130 28526,5130 28526,14890 27935,14890 Z"/>
      <path fill="rgb(207,105,119)" stroke="none" d="M 28033,14890 L 28033,5130 28526,5130 28526,14890 28033,14890 Z"/>
      <path fill="rgb(209,106,119)" stroke="none" d="M 28132,14890 L 28132,5130 28526,5130 28526,14890 28132,14890 Z"/>
      <path fill="rgb(211,107,119)" stroke="none" d="M 28230,14890 L 28230,5130 28526,5130 28526,14890 28230,14890 Z"/>
      <path fill="rgb(213,108,119)" stroke="none" d="M 28329,14890 L 28329,5130 28526,5130 28526,14890 28329,14890 Z"/>
      <path fill="rgb(215,109,119)" stroke="none" d="M 28427,14890 L 28427,5130 28527,5130 28527,14890 28427,14890 Z"/>
     </g>
     <path fill="none" stroke="rgb(67,114,157)" stroke-width="18" stroke-linejoin="miter" d="M 20740,5130 L 24465,5130 C 25600,5130 26479,5411 27104,5973 27800,6602 28148,7401 28148,8369 28148,9355 27716,10187 26853,10864 L 28527,14890 25480,14890 24072,11743 24072,9234 24300,9234 C 24911,9234 25216,8972 25216,8447 25216,7985 24863,7754 24157,7754 L 23643,7754 23643,14890 20740,14890 20740,5130 Z"/>
    </g>
   </g>
   <g class="com.sun.star.drawing.CustomShape">
    <g id="id5">
     <rect class="BoundingBox" stroke="none" fill="none" x="16521" y="5121" width="7128" height="9779"/>
     <defs>
      <clipPath id="clip_path_3" clipPathUnits="userSpaceOnUse">
       <path d="M 20277,5130 C 21421,5130 22267,5424 22815,6012 23363,6600 23638,7508 23638,8736 L 23638,14890 20734,14890 20734,8925 C 20734,8553 20689,8294 20598,8150 20508,8006 20346,7934 20112,7934 19659,7934 19433,8264 19433,8925 L 19433,10111 20269,10111 20269,12622 19433,12622 19433,14890 16530,14890 16530,8834 C 16530,7662 16857,6752 17513,6103 18168,5454 19090,5130 20277,5130 L 20277,5130 Z"/>
      </clipPath>
     </defs>
     <g clip-path="url(#clip_path_3)">
      <path fill="rgb(58,28,113)" stroke="none" d="M 16530,5130 L 23638,5130 23638,14890 16530,14890 16530,5130 Z"/>
      <path fill="rgb(60,29,113)" stroke="none" d="M 16621,14890 L 16621,5130 23638,5130 23638,14890 16621,14890 Z"/>
      <path fill="rgb(62,30,113)" stroke="none" d="M 16711,14890 L 16711,5130 23638,5130 23638,14890 16711,14890 Z"/>
      <path fill="rgb(64,31,113)" stroke="none" d="M 16801,14890 L 16801,5130 23638,5130 23638,14890 16801,14890 Z"/>
      <path fill="rgb(66,32,113)" stroke="none" d="M 16891,14890 L 16891,5130 23638,5130 23638,14890 16891,14890 Z"/>
      <path fill="rgb(68,33,113)" stroke="none" d="M 16981,14890 L 16981,5130 23638,5130 23638,14890 16981,14890 Z"/>
      <path fill="rgb(70,34,113)" stroke="none" d="M 17071,14890 L 17071,5130 23638,5130 23638,14890 17071,14890 Z"/>
      <path fill="rgb(72,35,114)" stroke="none" d="M 17161,14890 L 17161,5130 23638,5130 23638,14890 17161,14890 Z"/>
      <path fill="rgb(74,36,114)" stroke="none" d="M 17251,14890 L 17251,5130 23638,5130 23638,14890 17251,14890 Z"/>
      <path fill="rgb(76,37,114)" stroke="none" d="M 17341,14890 L 17341,5130 23638,5130 23638,14890 17341,14890 Z"/>
      <path fill="rgb(78,38,114)" stroke="none" d="M 17431,14890 L 17431,5130 23638,5130 23638,14890 17431,14890 Z"/>
      <path fill="rgb(80,39,114)" stroke="none" d="M 17521,14890 L 17521,5130 23638,5130 23638,14890 17521,14890 Z"/>
      <path fill="rgb(82,40,114)" stroke="none" d="M 17611,14890 L 17611,5130 23638,5130 23638,14890 17611,14890 Z"/>
      <path fill="rgb(84,41,114)" stroke="none" d="M 17701,14890 L 17701,5130 23638,5130 23638,14890 17701,14890 Z"/>
      <path fill="rgb(86,43,114)" stroke="none" d="M 17790,14890 L 17790,5130 23638,5130 23638,14890 17790,14890 Z"/>
      <path fill="rgb(88,44,114)" stroke="none" d="M 17880,14890 L 17880,5130 23638,5130 23638,14890 17880,14890 Z"/>
      <path fill="rgb(90,45,114)" stroke="none" d="M 17970,14890 L 17970,5130 23638,5130 23638,14890 17970,14890 Z"/>
      <path fill="rgb(92,46,114)" stroke="none" d="M 18060,14890 L 18060,5130 23638,5130 23638,14890 18060,14890 Z"/>
      <path fill="rgb(94,47,114)" stroke="none" d="M 18150,14890 L 18150,5130 23638,5130 23638,14890 18150,14890 Z"/>
      <path fill="rgb(96,48,114)" stroke="none" d="M 18240,14890 L 18240,5130 23638,5130 23638,14890 18240,14890 Z"/>
      <path fill="rgb(98,49,115)" stroke="none" d="M 18330,14890 L 18330,5130 23638,5130 23638,14890 18330,14890 Z"/>
      <path fill="rgb(100,50,115)" stroke="none" d="M 18420,14890 L 18420,5130 23638,5130 23638,14890 18420,14890 Z"/>
      <path fill="rgb(102,51,115)" stroke="none" d="M 18510,14890 L 18510,5130 23638,5130 23638,14890 18510,14890 Z"/>
      <path fill="rgb(104,52,115)" stroke="none" d="M 18600,14890 L 18600,5130 23638,5130 23638,14890 18600,14890 Z"/>
      <path fill="rgb(106,53,115)" stroke="none" d="M 18690,14890 L 18690,5130 23638,5130 23638,14890 18690,14890 Z"/>
      <path fill="rgb(108,54,115)" stroke="none" d="M 18780,14890 L 18780,5130 23638,5130 23638,14890 18780,14890 Z"/>
      <path fill="rgb(110,55,115)" stroke="none" d="M 18870,14890 L 18870,5130 23638,5130 23638,14890 18870,14890 Z"/>
      <path fill="rgb(112,56,115)" stroke="none" d="M 18960,14890 L 18960,5130 23638,5130 23638,14890 18960,14890 Z"/>
      <path fill="rgb(114,57,115)" stroke="none" d="M 19050,14890 L 19050,5130 23638,5130 23638,14890 19050,14890 Z"/>
      <path fill="rgb(116,58,115)" stroke="none" d="M 19140,14890 L 19140,5130 23638,5130 23638,14890 19140,14890 Z"/>
      <path fill="rgb(118,59,115)" stroke="none" d="M 19230,14890 L 19230,5130 23638,5130 23638,14890 19230,14890 Z"/>
      <path fill="rgb(120,60,115)" stroke="none" d="M 19320,14890 L 19320,5130 23638,5130 23638,14890 19320,14890 Z"/>
      <path fill="rgb(122,61,115)" stroke="none" d="M 19410,14890 L 19410,5130 23638,5130 23638,14890 19410,14890 Z"/>
      <path fill="rgb(124,62,116)" stroke="none" d="M 19500,14890 L 19500,5130 23638,5130 23638,14890 19500,14890 Z"/>
      <path fill="rgb(126,63,116)" stroke="none" d="M 19590,14890 L 19590,5130 23638,5130 23638,14890 19590,14890 Z"/>
      <path fill="rgb(128,64,116)" stroke="none" d="M 19680,14890 L 19680,5130 23638,5130 23638,14890 19680,14890 Z"/>
      <path fill="rgb(130,65,116)" stroke="none" d="M 19770,14890 L 19770,5130 23638,5130 23638,14890 19770,14890 Z"/>
      <path fill="rgb(132,66,116)" stroke="none" d="M 19860,14890 L 19860,5130 23638,5130 23638,14890 19860,14890 Z"/>
      <path fill="rgb(134,67,116)" stroke="none" d="M 19950,14890 L 19950,5130 23638,5130 23638,14890 19950,14890 Z"/>
      <path fill="rgb(137,69,116)" stroke="none" d="M 20040,14890 L 20040,5130 23638,5130 23638,14890 20040,14890 Z"/>
      <path fill="rgb(139,70,116)" stroke="none" d="M 20129,14890 L 20129,5130 23638,5130 23638,14890 20129,14890 Z"/>
      <path fill="rgb(141,71,116)" stroke="none" d="M 20219,14890 L 20219,5130 23638,5130 23638,14890 20219,14890 Z"/>
      <path fill="rgb(143,72,116)" stroke="none" d="M 20309,14890 L 20309,5130 23638,5130 23638,14890 20309,14890 Z"/>
      <path fill="rgb(145,73,116)" stroke="none" d="M 20399,14890 L 20399,5130 23638,5130 23638,14890 20399,14890 Z"/>
      <path fill="rgb(147,74,116)" stroke="none" d="M 20489,14890 L 20489,5130 23638,5130 23638,14890 20489,14890 Z"/>
      <path fill="rgb(149,75,116)" stroke="none" d="M 20579,14890 L 20579,5130 23638,5130 23638,14890 20579,14890 Z"/>
      <path fill="rgb(151,76,117)" stroke="none" d="M 20669,14890 L 20669,5130 23638,5130 23638,14890 20669,14890 Z"/>
      <path fill="rgb(153,77,117)" stroke="none" d="M 20759,14890 L 20759,5130 23638,5130 23638,14890 20759,14890 Z"/>
      <path fill="rgb(155,78,117)" stroke="none" d="M 20849,14890 L 20849,5130 23638,5130 23638,14890 20849,14890 Z"/>
      <path fill="rgb(157,79,117)" stroke="none" d="M 20939,14890 L 20939,5130 23638,5130 23638,14890 20939,14890 Z"/>
      <path fill="rgb(159,80,117)" stroke="none" d="M 21029,14890 L 21029,5130 23638,5130 23638,14890 21029,14890 Z"/>
      <path fill="rgb(161,81,117)" stroke="none" d="M 21119,14890 L 21119,5130 23638,5130 23638,14890 21119,14890 Z"/>
      <path fill="rgb(163,82,117)" stroke="none" d="M 21209,14890 L 21209,5130 23638,5130 23638,14890 21209,14890 Z"/>
      <path fill="rgb(165,83,117)" stroke="none" d="M 21299,14890 L 21299,5130 23638,5130 23638,14890 21299,14890 Z"/>
      <path fill="rgb(167,84,117)" stroke="none" d="M 21389,14890 L 21389,5130 23638,5130 23638,14890 21389,14890 Z"/>
      <path fill="rgb(169,85,117)" stroke="none" d="M 21479,14890 L 21479,5130 23638,5130 23638,14890 21479,14890 Z"/>
      <path fill="rgb(171,86,117)" stroke="none" d="M 21569,14890 L 21569,5130 23638,5130 23638,14890 21569,14890 Z"/>
      <path fill="rgb(173,87,117)" stroke="none" d="M 21659,14890 L 21659,5130 23638,5130 23638,14890 21659,14890 Z"/>
      <path fill="rgb(175,88,117)" stroke="none" d="M 21749,14890 L 21749,5130 23638,5130 23638,14890 21749,14890 Z"/>
      <path fill="rgb(177,89,118)" stroke="none" d="M 21839,14890 L 21839,5130 23638,5130 23638,14890 21839,14890 Z"/>
      <path fill="rgb(179,90,118)" stroke="none" d="M 21929,14890 L 21929,5130 23638,5130 23638,14890 21929,14890 Z"/>
      <path fill="rgb(181,91,118)" stroke="none" d="M 22019,14890 L 22019,5130 23638,5130 23638,14890 22019,14890 Z"/>
      <path fill="rgb(183,92,118)" stroke="none" d="M 22109,14890 L 22109,5130 23638,5130 23638,14890 22109,14890 Z"/>
      <path fill="rgb(185,93,118)" stroke="none" d="M 22199,14890 L 22199,5130 23638,5130 23638,14890 22199,14890 Z"/>
      <path fill="rgb(187,94,118)" stroke="none" d="M 22289,14890 L 22289,5130 23638,5130 23638,14890 22289,14890 Z"/>
      <path fill="rgb(189,96,118)" stroke="none" d="M 22379,14890 L 22379,5130 23638,5130 23638,14890 22379,14890 Z"/>
      <path fill="rgb(191,97,118)" stroke="none" d="M 22468,14890 L 22468,5130 23638,5130 23638,14890 22468,14890 Z"/>
      <path fill="rgb(193,98,118)" stroke="none" d="M 22558,14890 L 22558,5130 23638,5130 23638,14890 22558,14890 Z"/>
      <path fill="rgb(195,99,118)" stroke="none" d="M 22648,14890 L 22648,5130 23638,5130 23638,14890 22648,14890 Z"/>
      <path fill="rgb(197,100,118)" stroke="none" d="M 22738,14890 L 22738,5130 23638,5130 23638,14890 22738,14890 Z"/>
      <path fill="rgb(199,101,118)" stroke="none" d="M 22828,14890 L 22828,5130 23638,5130 23638,14890 22828,14890 Z"/>
      <path fill="rgb(201,102,118)" stroke="none" d="M 22918,14890 L 22918,5130 23638,5130 23638,14890 22918,14890 Z"/>
      <path fill="rgb(203,103,119)" stroke="none" d="M 23008,14890 L 23008,5130 23638,5130 23638,14890 23008,14890 Z"/>
      <path fill="rgb(205,104,119)" stroke="none" d="M 23098,14890 L 23098,5130 23638,5130 23638,14890 23098,14890 Z"/>
      <path fill="rgb(207,105,119)" stroke="none" d="M 23188,14890 L 23188,5130 23638,5130 23638,14890 23188,14890 Z"/>
      <path fill="rgb(209,106,119)" stroke="none" d="M 23278,14890 L 23278,5130 23638,5130 23638,14890 23278,14890 Z"/>
      <path fill="rgb(211,107,119)" stroke="none" d="M 23368,14890 L 23368,5130 23638,5130 23638,14890 23368,14890 Z"/>
      <path fill="rgb(213,108,119)" stroke="none" d="M 23458,14890 L 23458,5130 23638,5130 23638,14890 23458,14890 Z"/>
      <path fill="rgb(215,109,119)" stroke="none" d="M 23548,14890 L 23548,5130 23638,5130 23638,14890 23548,14890 Z"/>
     </g>
     <path fill="none" stroke="rgb(67,114,157)" stroke-width="18" stroke-linejoin="miter" d="M 20277,5130 C 21421,5130 22267,5424 22815,6012 23363,6600 23638,7508 23638,8736 L 23638,14890 20734,14890 20734,8925 C 20734,8553 20689,8294 20598,8150 20508,8006 20346,7934 20112,7934 19659,7934 19433,8264 19433,8925 L 19433,10111 20269,10111 20269,12622 19433,12622 19433,14890 16530,14890 16530,8834 C 16530,7662 16857,6752 17513,6103 18168,5454 19090,5130 20277,5130 Z"/>
    </g>
   </g>
   <g class="com.sun.star.drawing.CustomShape">
    <g id="id6">
     <rect class="BoundingBox" stroke="none" fill="none" x="13502" y="6689" width="3668" height="8226"/>
     <path fill="rgb(0,0,0)" stroke="none" d="M 15948,9336 L 13922,12840 16158,12840 16158,9336 15948,9336 15948,9336 Z M 17047,6689 C 16420,8031 16580,8855 16563,8931 L 16563,12840 16897,12840 C 16995,12840 17065,12858 17107,12895 17148,12931 17169,12980 17169,13040 17169,13097 17148,13145 17107,13183 17065,13221 16995,13240 16897,13240 L 16563,13240 16563,14513 16897,14513 C 16995,14513 17065,14531 17107,14568 17148,14604 17169,14653 17169,14713 17169,14770 17148,14818 17107,14856 17065,14894 16995,14914 16897,14914 L 15409,14914 C 15311,14914 15241,14894 15200,14856 15158,14818 15138,14770 15138,14713 15138,14653 15158,14604 15200,14568 15241,14531 15311,14513 15409,14513 L 16158,14513 16158,13240 13503,13240 13503,12778 17047,6689 17047,6689 Z"/>
    </g>
   </g>
   <g class="com.sun.star.drawing.CustomShape">
    <g id="id7">
     <rect class="BoundingBox" stroke="none" fill="none" x="1433" y="7505" width="12337" height="6141"/>
     <path fill="rgb(0,0,0)" stroke="none" d="M 8518,7505 C 8896,7505 9300,7539 9729,7609 9891,7635 9989,7665 10022,7700 10055,7735 10072,7781 10072,7838 10072,7895 10053,7942 10015,7979 9977,8015 9926,8034 9862,8034 9837,8034 9794,8029 9734,8019 9254,7946 8849,7910 8518,7910 8169,7910 7899,7996 7710,8167 7521,8339 7426,8534 7426,8753 L 7426,9359 10308,9359 10308,8177 C 10308,8081 10327,8013 10365,7972 10403,7930 10451,7910 10508,7910 10568,7910 10617,7930 10656,7972 10694,8013 10713,8081 10713,8177 L 10713,9359 12887,9359 C 12982,9359 13050,9378 13092,9416 13133,9454 13153,9503 13153,9564 13153,9621 13133,9669 13092,9707 13050,9745 12982,9764 12887,9764 L 10713,9764 10713,12429 C 10713,12661 10806,12855 10992,13010 11178,13166 11450,13244 11809,13244 12079,13244 12372,13204 12686,13123 13001,13041 13246,12950 13420,12848 13484,12807 13563,12661 13604,12661 13655,12661 13684,12792 13711,12846 13739,12900 13770,12944 13768,12987 13767,13029 13739,13057 13700,13100 13618,13192 13276,13370 12965,13461 12655,13552 12197,13645 11838,13645 11371,13645 10999,13535 10722,13316 10446,13096 10308,12801 10308,12429 L 10308,9764 7426,9764 7426,13087 9185,13087 C 9281,13087 9349,13105 9390,13142 9432,13178 9452,13227 9452,13287 9452,13344 9432,13392 9390,13430 9349,13468 9281,13487 9185,13487 L 4874,13487 C 4776,13487 4706,13468 4664,13430 4623,13392 4603,13344 4603,13287 4603,13227 4623,13178 4664,13142 4706,13105 4776,13087 4874,13087 L 5208,13087 5208,10632 C 5208,10349 5105,10110 4898,9914 4692,9719 4415,9621 4069,9621 3805,9621 3576,9674 3382,9781 3188,9887 2912,10152 2553,10574 L 2553,13087 3006,13087 C 3101,13087 3169,13105 3211,13142 3252,13178 3273,13227 3273,13287 3273,13344 3252,13392 3211,13430 3169,13468 3101,13487 3006,13487 L 1699,13487 C 1604,13487 1536,13468 1494,13430 1453,13392 1433,13344 1433,13287 1433,13227 1453,13178 1494,13142 1536,13105 1604,13087 1699,13087 L 2152,13087 2152,9764 1814,9764 C 1719,9764 1650,9745 1609,9707 1568,9669 1547,9619 1547,9559 1547,9502 1568,9454 1609,9416 1650,9378 1719,9359 1814,9359 L 2553,9359 2553,9964 C 2832,9681 3085,9486 3311,9378 3536,9270 3791,9216 4073,9216 4378,9216 4657,9281 4908,9411 5086,9507 5247,9665 5391,9886 5536,10107 5608,10333 5608,10565 L 5608,13087 7021,13087 7021,9764 6154,9764 C 6058,9764 5990,9745 5949,9707 5907,9669 5887,9619 5887,9559 5887,9502 5907,9454 5949,9416 5990,9378 6058,9359 6154,9359 L 7021,9359 7021,8753 C 7021,8417 7158,8124 7431,7876 7705,7628 8067,7505 8518,7505 L 8518,7505 Z"/>
    </g>
   </g>
  </g>
 </g>
</svg>