<?xml version="1.0" encoding="UTF-8" standalone="no"?>
<svg
   version="1.2"
   viewBox="1433 5121 31020 9794"
   preserveAspectRatio="xMidYMid"
   fill-rule="evenodd"
   stroke-width="28.222"
   stroke-linejoin="round"
   xml:space="preserve"
   id="svg1191"
   sodipodi:docname="nftIco.svg"
   inkscape:version="1.1.2 (08b2f3d93c, 2022-04-05)"
   xmlns:inkscape="http://www.inkscape.org/namespaces/inkscape"
   xmlns:sodipodi="http://sodipodi.sourceforge.net/DTD/sodipodi-0.dtd"
   xmlns="http://www.w3.org/2000/svg"
   xmlns:svg="http://www.w3.org/2000/svg"
   xmlns:ooo="http://xml.openoffice.org/svg/export"><sodipodi:namedview
   id="namedview1193"
   pagecolor="#ffffff"
   bordercolor="#666666"
   borderopacity="1.0"
   inkscape:pageshadow="2"
   inkscape:pageopacity="0.0"
   inkscape:pagecheckerboard="0"
   showgrid="false"
   inkscape:zoom="0.10180529"
   inkscape:cx="15510"
   inkscape:cy="4896.6023"
   inkscape:window-width="3768"
   inkscape:window-height="2096"
   inkscape:window-x="72"
   inkscape:window-y="27"
   inkscape:window-maximized="1"
   inkscape:current-layer="g1189" />
 <defs
   class="EmbeddedBulletChars"
   id="defs655">
  <g
   id="bullet-char-template-57356"
   transform="scale(0.00048828125,-0.00048828125)">
   <path
   d="M 580,1141 L 1163,571 580,0 -4,571 580,1141 Z"
   id="path625" />
  </g>
  <g
   id="bullet-char-template-57354"
   transform="scale(0.00048828125,-0.00048828125)">
   <path
   d="M 8,1128 L 1137,1128 1137,0 8,0 8,1128 Z"
   id="path628" />
  </g>
  <g
   id="bullet-char-template-10146"
   transform="scale(0.00048828125,-0.00048828125)">
   <path
   d="M 174,0 L 602,739 174,1481 1456,739 174,0 Z M 1358,739 L 309,1346 659,739 1358,739 Z"
   id="path631" />
  </g>
  <g
   id="bullet-char-template-10132"
   transform="scale(0.00048828125,-0.00048828125)">
   <path
   d="M 2015,739 L 1276,0 717,0 1260,543 174,543 174,936 1260,936 717,1481 1274,1481 2015,739 Z"
   id="path634" />
  </g>
  <g
   id="bullet-char-template-10007"
   transform="scale(0.00048828125,-0.00048828125)">
   <path
   d="M 0,-2 C -7,14 -16,27 -25,37 L 356,567 C 262,823 215,952 215,954 215,979 228,992 255,992 264,992 276,990 289,987 310,991 331,999 354,1012 L 381,999 492,748 772,1049 836,1024 860,1049 C 881,1039 901,1025 922,1006 886,937 835,863 770,784 769,783 710,716 594,584 L 774,223 C 774,196 753,168 711,139 L 727,119 C 717,90 699,76 672,76 641,76 570,178 457,381 L 164,-76 C 142,-110 111,-127 72,-127 30,-127 9,-110 8,-76 1,-67 -2,-52 -2,-32 -2,-23 -1,-13 0,-2 Z"
   id="path637" />
  </g>
  <g
   id="bullet-char-template-10004"
   transform="scale(0.00048828125,-0.00048828125)">
   <path
   d="M 285,-33 C 182,-33 111,30 74,156 52,228 41,333 41,471 41,549 55,616 82,672 116,743 169,778 240,778 293,778 328,747 346,684 L 369,508 C 377,444 397,411 428,410 L 1163,1116 C 1174,1127 1196,1133 1229,1133 1271,1133 1292,1118 1292,1087 L 1292,965 C 1292,929 1282,901 1262,881 L 442,47 C 390,-6 338,-33 285,-33 Z"
   id="path640" />
  </g>
  <g
   id="bullet-char-template-9679"
   transform="scale(0.00048828125,-0.00048828125)">
   <path
   d="M 813,0 C 632,0 489,54 383,161 276,268 223,411 223,592 223,773 276,916 383,1023 489,1130 632,1184 813,1184 992,1184 1136,1130 1245,1023 1353,916 1407,772 1407,592 1407,412 1353,268 1245,161 1136,54 992,0 813,0 Z"
   id="path643" />
  </g>
  <g
   id="bullet-char-template-8226"
   transform="scale(0.00048828125,-0.00048828125)">
   <path
   d="M 346,457 C 273,457 209,483 155,535 101,586 74,649 74,723 74,796 101,859 155,911 209,963 273,989 346,989 419,989 480,963 531,910 582,859 608,796 608,723 608,648 583,586 532,535 482,483 420,457 346,457 Z"
   id="path646" />
  </g>
  <g
   id="bullet-char-template-8211"
   transform="scale(0.00048828125,-0.00048828125)">
   <path
   d="M -4,459 L 1135,459 1135,606 -4,606 -4,459 Z"
   id="path649" />
  </g>
  <g
   id="bullet-char-template-61548"
   transform="scale(0.00048828125,-0.00048828125)">
   <path
   d="M 173,740 C 173,903 231,1043 346,1159 462,1274 601,1332 765,1332 928,1332 1067,1274 1183,1159 1299,1043 1357,903 1357,740 1357,577 1299,437 1183,322 1067,206 928,148 765,148 601,148 462,206 346,322 231,437 173,577 173,740 Z"
   id="path652" />
  </g>
 
   
   
   
   
   
  </defs>
 <g
   ooo:name="page2"
   class="Page"
   id="g1189">
  <g
   id="g2125"
   transform="translate(-7460)"
   inkscape:export-filename="/home/philippe/Desktop/nft4Art/public/nftIco.png"
   inkscape:export-xdpi="96"
   inkscape:export-ydpi="96"><g
     class="com.sun.star.drawing.CustomShape"
     id="g827">
    <g
   id="id3">
     <rect
   class="BoundingBox"
   stroke="none"
   fill="none"
   x="25089"
   y="5121"
   width="7364"
   height="9779"
   id="rect657" />
     <defs
   id="defs662">
      <clipPath
   id="clip_path_1"
   clipPathUnits="userSpaceOnUse">
       <path
   d="m 25098,5130 h 7344 v 2802 h -2217 v 6958 H 27321 V 7932 h -2223 z"
   id="path659" />
      </clipPath>
     </defs>
     <g
   clip-path="url(#clip_path_1)"
   id="g822">
      <path
   fill="#3a1c71"
   stroke="none"
   d="m 25098,5130 h 7344 v 9760 h -7344 z"
   id="path664" />
      <path
   fill="#3c1d71"
   stroke="none"
   d="M 25192,14890 V 5130 h 7250 v 9760 z"
   id="path666" />
      <path
   fill="#3e1e71"
   stroke="none"
   d="M 25285,14890 V 5130 h 7157 v 9760 z"
   id="path668" />
      <path
   fill="#401f71"
   stroke="none"
   d="M 25378,14890 V 5130 h 7064 v 9760 z"
   id="path670" />
      <path
   fill="#422071"
   stroke="none"
   d="M 25471,14890 V 5130 h 6971 v 9760 z"
   id="path672" />
      <path
   fill="#442171"
   stroke="none"
   d="M 25564,14890 V 5130 h 6878 v 9760 z"
   id="path674" />
      <path
   fill="#462271"
   stroke="none"
   d="M 25657,14890 V 5130 h 6785 v 9760 z"
   id="path676" />
      <path
   fill="#482372"
   stroke="none"
   d="M 25750,14890 V 5130 h 6692 v 9760 z"
   id="path678" />
      <path
   fill="#4a2472"
   stroke="none"
   d="M 25843,14890 V 5130 h 6599 v 9760 z"
   id="path680" />
      <path
   fill="#4c2572"
   stroke="none"
   d="M 25936,14890 V 5130 h 6506 v 9760 z"
   id="path682" />
      <path
   fill="#4e2672"
   stroke="none"
   d="M 26028,14890 V 5130 h 6414 v 9760 z"
   id="path684" />
      <path
   fill="#502772"
   stroke="none"
   d="M 26121,14890 V 5130 h 6321 v 9760 z"
   id="path686" />
      <path
   fill="#522872"
   stroke="none"
   d="M 26214,14890 V 5130 h 6228 v 9760 z"
   id="path688" />
      <path
   fill="#542972"
   stroke="none"
   d="M 26307,14890 V 5130 h 6135 v 9760 z"
   id="path690" />
      <path
   fill="#562b72"
   stroke="none"
   d="M 26400,14890 V 5130 h 6042 v 9760 z"
   id="path692" />
      <path
   fill="#582c72"
   stroke="none"
   d="M 26493,14890 V 5130 h 5949 v 9760 z"
   id="path694" />
      <path
   fill="#5a2d72"
   stroke="none"
   d="M 26586,14890 V 5130 h 5856 v 9760 z"
   id="path696" />
      <path
   fill="#5c2e72"
   stroke="none"
   d="M 26679,14890 V 5130 h 5763 v 9760 z"
   id="path698" />
      <path
   fill="#5e2f72"
   stroke="none"
   d="M 26772,14890 V 5130 h 5670 v 9760 z"
   id="path700" />
      <path
   fill="#603072"
   stroke="none"
   d="M 26865,14890 V 5130 h 5577 v 9760 z"
   id="path702" />
      <path
   fill="#623173"
   stroke="none"
   d="M 26958,14890 V 5130 h 5484 v 9760 z"
   id="path704" />
      <path
   fill="#643273"
   stroke="none"
   d="M 27051,14890 V 5130 h 5391 v 9760 z"
   id="path706" />
      <path
   fill="#663373"
   stroke="none"
   d="M 27144,14890 V 5130 h 5298 v 9760 z"
   id="path708" />
      <path
   fill="#683473"
   stroke="none"
   d="M 27237,14890 V 5130 h 5205 v 9760 z"
   id="path710" />
      <path
   fill="#6a3573"
   stroke="none"
   d="M 27330,14890 V 5130 h 5112 v 9760 z"
   id="path712" />
      <path
   fill="#6c3673"
   stroke="none"
   d="M 27423,14890 V 5130 h 5019 v 9760 z"
   id="path714" />
      <path
   fill="#6e3773"
   stroke="none"
   d="M 27516,14890 V 5130 h 4926 v 9760 z"
   id="path716" />
      <path
   fill="#703873"
   stroke="none"
   d="M 27609,14890 V 5130 h 4833 v 9760 z"
   id="path718" />
      <path
   fill="#723973"
   stroke="none"
   d="M 27702,14890 V 5130 h 4740 v 9760 z"
   id="path720" />
      <path
   fill="#743a73"
   stroke="none"
   d="M 27795,14890 V 5130 h 4647 v 9760 z"
   id="path722" />
      <path
   fill="#763b73"
   stroke="none"
   d="M 27887,14890 V 5130 h 4555 v 9760 z"
   id="path724" />
      <path
   fill="#783c73"
   stroke="none"
   d="M 27980,14890 V 5130 h 4462 v 9760 z"
   id="path726" />
      <path
   fill="#7a3d73"
   stroke="none"
   d="M 28073,14890 V 5130 h 4369 v 9760 z"
   id="path728" />
      <path
   fill="#7c3e74"
   stroke="none"
   d="M 28166,14890 V 5130 h 4276 v 9760 z"
   id="path730" />
      <path
   fill="#7e3f74"
   stroke="none"
   d="M 28259,14890 V 5130 h 4183 v 9760 z"
   id="path732" />
      <path
   fill="#804074"
   stroke="none"
   d="M 28352,14890 V 5130 h 4090 v 9760 z"
   id="path734" />
      <path
   fill="#824174"
   stroke="none"
   d="M 28445,14890 V 5130 h 3997 v 9760 z"
   id="path736" />
      <path
   fill="#844274"
   stroke="none"
   d="M 28538,14890 V 5130 h 3904 v 9760 z"
   id="path738" />
      <path
   fill="#864374"
   stroke="none"
   d="M 28631,14890 V 5130 h 3811 v 9760 z"
   id="path740" />
      <path
   fill="#894574"
   stroke="none"
   d="M 28724,14890 V 5130 h 3718 v 9760 z"
   id="path742" />
      <path
   fill="#8b4674"
   stroke="none"
   d="M 28817,14890 V 5130 h 3625 v 9760 z"
   id="path744" />
      <path
   fill="#8d4774"
   stroke="none"
   d="M 28910,14890 V 5130 h 3532 v 9760 z"
   id="path746" />
      <path
   fill="#8f4874"
   stroke="none"
   d="M 29003,14890 V 5130 h 3439 v 9760 z"
   id="path748" />
      <path
   fill="#914974"
   stroke="none"
   d="M 29096,14890 V 5130 h 3346 v 9760 z"
   id="path750" />
      <path
   fill="#934a74"
   stroke="none"
   d="M 29189,14890 V 5130 h 3253 v 9760 z"
   id="path752" />
      <path
   fill="#954b74"
   stroke="none"
   d="M 29282,14890 V 5130 h 3160 v 9760 z"
   id="path754" />
      <path
   fill="#974c75"
   stroke="none"
   d="M 29375,14890 V 5130 h 3067 v 9760 z"
   id="path756" />
      <path
   fill="#994d75"
   stroke="none"
   d="M 29468,14890 V 5130 h 2974 v 9760 z"
   id="path758" />
      <path
   fill="#9b4e75"
   stroke="none"
   d="M 29561,14890 V 5130 h 2881 v 9760 z"
   id="path760" />
      <path
   fill="#9d4f75"
   stroke="none"
   d="M 29654,14890 V 5130 h 2788 v 9760 z"
   id="path762" />
      <path
   fill="#9f5075"
   stroke="none"
   d="M 29746,14890 V 5130 h 2696 v 9760 z"
   id="path764" />
      <path
   fill="#a15175"
   stroke="none"
   d="M 29839,14890 V 5130 h 2603 v 9760 z"
   id="path766" />
      <path
   fill="#a35275"
   stroke="none"
   d="M 29932,14890 V 5130 h 2510 v 9760 z"
   id="path768" />
      <path
   fill="#a55375"
   stroke="none"
   d="M 30025,14890 V 5130 h 2417 v 9760 z"
   id="path770" />
      <path
   fill="#a75475"
   stroke="none"
   d="M 30118,14890 V 5130 h 2324 v 9760 z"
   id="path772" />
      <path
   fill="#a95575"
   stroke="none"
   d="M 30211,14890 V 5130 h 2231 v 9760 z"
   id="path774" />
      <path
   fill="#ab5675"
   stroke="none"
   d="M 30304,14890 V 5130 h 2138 v 9760 z"
   id="path776" />
      <path
   fill="#ad5775"
   stroke="none"
   d="M 30397,14890 V 5130 h 2045 v 9760 z"
   id="path778" />
      <path
   fill="#af5875"
   stroke="none"
   d="M 30490,14890 V 5130 h 1952 v 9760 z"
   id="path780" />
      <path
   fill="#b15976"
   stroke="none"
   d="M 30583,14890 V 5130 h 1859 v 9760 z"
   id="path782" />
      <path
   fill="#b35a76"
   stroke="none"
   d="M 30676,14890 V 5130 h 1766 v 9760 z"
   id="path784" />
      <path
   fill="#b55b76"
   stroke="none"
   d="M 30769,14890 V 5130 h 1673 v 9760 z"
   id="path786" />
      <path
   fill="#b75c76"
   stroke="none"
   d="M 30862,14890 V 5130 h 1580 v 9760 z"
   id="path788" />
      <path
   fill="#b95d76"
   stroke="none"
   d="M 30955,14890 V 5130 h 1487 v 9760 z"
   id="path790" />
      <path
   fill="#bb5e76"
   stroke="none"
   d="M 31048,14890 V 5130 h 1394 v 9760 z"
   id="path792" />
      <path
   fill="#bd6076"
   stroke="none"
   d="M 31141,14890 V 5130 h 1301 v 9760 z"
   id="path794" />
      <path
   fill="#bf6176"
   stroke="none"
   d="M 31234,14890 V 5130 h 1208 v 9760 z"
   id="path796" />
      <path
   fill="#c16276"
   stroke="none"
   d="M 31327,14890 V 5130 h 1115 v 9760 z"
   id="path798" />
      <path
   fill="#c36376"
   stroke="none"
   d="M 31420,14890 V 5130 h 1022 v 9760 z"
   id="path800" />
      <path
   fill="#c56476"
   stroke="none"
   d="M 31513,14890 V 5130 h 929 v 9760 z"
   id="path802" />
      <path
   fill="#c76576"
   stroke="none"
   d="M 31605,14890 V 5130 h 837 v 9760 z"
   id="path804" />
      <path
   fill="#c96676"
   stroke="none"
   d="M 31698,14890 V 5130 h 744 v 9760 z"
   id="path806" />
      <path
   fill="#cb6777"
   stroke="none"
   d="M 31791,14890 V 5130 h 651 v 9760 z"
   id="path808" />
      <path
   fill="#cd6877"
   stroke="none"
   d="M 31884,14890 V 5130 h 558 v 9760 z"
   id="path810" />
      <path
   fill="#cf6977"
   stroke="none"
   d="M 31977,14890 V 5130 h 465 v 9760 z"
   id="path812" />
      <path
   fill="#d16a77"
   stroke="none"
   d="M 32070,14890 V 5130 h 372 v 9760 z"
   id="path814" />
      <path
   fill="#d36b77"
   stroke="none"
   d="M 32163,14890 V 5130 h 279 v 9760 z"
   id="path816" />
      <path
   fill="#d56c77"
   stroke="none"
   d="M 32256,14890 V 5130 h 186 v 9760 z"
   id="path818" />
      <path
   fill="#d76d77"
   stroke="none"
   d="M 32349,14890 V 5130 h 93 v 9760 z"
   id="path820" />
     </g>
     <path
   fill="none"
   stroke="#43729d"
   stroke-width="18"
   stroke-linejoin="miter"
   d="m 25098,5130 h 7344 v 2802 h -2217 v 6958 H 27321 V 7932 h -2223 z"
   id="path824" />
    </g>
   </g><g
     class="com.sun.star.drawing.CustomShape"
     id="g999">
    <g
   id="id4">
     <rect
   class="BoundingBox"
   stroke="none"
   fill="none"
   x="20731"
   y="5121"
   width="7811"
   height="9779"
   id="rect829" />
     <defs
   id="defs834">
      <clipPath
   id="clip_path_2"
   clipPathUnits="userSpaceOnUse">
       <path
   d="m 20740,5130 h 3725 c 1135,0 2014,281 2639,843 696,629 1044,1428 1044,2396 0,986 -432,1818 -1295,2495 l 1674,4026 H 25480 L 24072,11743 V 9234 h 228 c 611,0 916,-262 916,-787 0,-462 -353,-693 -1059,-693 h -514 v 7136 h -2903 z"
   id="path831" />
      </clipPath>
     </defs>
     <g
   clip-path="url(#clip_path_2)"
   id="g994">
      <path
   fill="#3a1c71"
   stroke="none"
   d="m 20740,5130 h 7787 v 9760 h -7787 z"
   id="path836" />
      <path
   fill="#3c1d71"
   stroke="none"
   d="M 20839,14890 V 5130 h 7687 v 9760 z"
   id="path838" />
      <path
   fill="#3e1e71"
   stroke="none"
   d="M 20937,14890 V 5130 h 7589 v 9760 z"
   id="path840" />
      <path
   fill="#401f71"
   stroke="none"
   d="M 21036,14890 V 5130 h 7490 v 9760 z"
   id="path842" />
      <path
   fill="#422071"
   stroke="none"
   d="M 21134,14890 V 5130 h 7392 v 9760 z"
   id="path844" />
      <path
   fill="#442171"
   stroke="none"
   d="M 21233,14890 V 5130 h 7293 v 9760 z"
   id="path846" />
      <path
   fill="#462271"
   stroke="none"
   d="M 21331,14890 V 5130 h 7195 v 9760 z"
   id="path848" />
      <path
   fill="#482372"
   stroke="none"
   d="M 21430,14890 V 5130 h 7096 v 9760 z"
   id="path850" />
      <path
   fill="#4a2472"
   stroke="none"
   d="M 21528,14890 V 5130 h 6998 v 9760 z"
   id="path852" />
      <path
   fill="#4c2572"
   stroke="none"
   d="M 21627,14890 V 5130 h 6899 v 9760 z"
   id="path854" />
      <path
   fill="#4e2672"
   stroke="none"
   d="M 21726,14890 V 5130 h 6800 v 9760 z"
   id="path856" />
      <path
   fill="#502772"
   stroke="none"
   d="M 21824,14890 V 5130 h 6702 v 9760 z"
   id="path858" />
      <path
   fill="#522872"
   stroke="none"
   d="M 21923,14890 V 5130 h 6603 v 9760 z"
   id="path860" />
      <path
   fill="#542972"
   stroke="none"
   d="M 22021,14890 V 5130 h 6505 v 9760 z"
   id="path862" />
      <path
   fill="#562b72"
   stroke="none"
   d="M 22120,14890 V 5130 h 6406 v 9760 z"
   id="path864" />
      <path
   fill="#582c72"
   stroke="none"
   d="M 22218,14890 V 5130 h 6308 v 9760 z"
   id="path866" />
      <path
   fill="#5a2d72"
   stroke="none"
   d="M 22317,14890 V 5130 h 6209 v 9760 z"
   id="path868" />
      <path
   fill="#5c2e72"
   stroke="none"
   d="M 22415,14890 V 5130 h 6111 v 9760 z"
   id="path870" />
      <path
   fill="#5e2f72"
   stroke="none"
   d="M 22514,14890 V 5130 h 6012 v 9760 z"
   id="path872" />
      <path
   fill="#603072"
   stroke="none"
   d="M 22613,14890 V 5130 h 5913 v 9760 z"
   id="path874" />
      <path
   fill="#623173"
   stroke="none"
   d="M 22711,14890 V 5130 h 5815 v 9760 z"
   id="path876" />
      <path
   fill="#643273"
   stroke="none"
   d="M 22810,14890 V 5130 h 5716 v 9760 z"
   id="path878" />
      <path
   fill="#663373"
   stroke="none"
   d="M 22908,14890 V 5130 h 5618 v 9760 z"
   id="path880" />
      <path
   fill="#683473"
   stroke="none"
   d="M 23007,14890 V 5130 h 5519 v 9760 z"
   id="path882" />
      <path
   fill="#6a3573"
   stroke="none"
   d="M 23105,14890 V 5130 h 5421 v 9760 z"
   id="path884" />
      <path
   fill="#6c3673"
   stroke="none"
   d="M 23204,14890 V 5130 h 5322 v 9760 z"
   id="path886" />
      <path
   fill="#6e3773"
   stroke="none"
   d="M 23302,14890 V 5130 h 5224 v 9760 z"
   id="path888" />
      <path
   fill="#703873"
   stroke="none"
   d="M 23401,14890 V 5130 h 5125 v 9760 z"
   id="path890" />
      <path
   fill="#723973"
   stroke="none"
   d="M 23500,14890 V 5130 h 5026 v 9760 z"
   id="path892" />
      <path
   fill="#743a73"
   stroke="none"
   d="M 23598,14890 V 5130 h 4928 v 9760 z"
   id="path894" />
      <path
   fill="#763b73"
   stroke="none"
   d="M 23697,14890 V 5130 h 4829 v 9760 z"
   id="path896" />
      <path
   fill="#783c73"
   stroke="none"
   d="M 23795,14890 V 5130 h 4731 v 9760 z"
   id="path898" />
      <path
   fill="#7a3d73"
   stroke="none"
   d="M 23894,14890 V 5130 h 4632 v 9760 z"
   id="path900" />
      <path
   fill="#7c3e74"
   stroke="none"
   d="M 23992,14890 V 5130 h 4534 v 9760 z"
   id="path902" />
      <path
   fill="#7e3f74"
   stroke="none"
   d="M 24091,14890 V 5130 h 4435 v 9760 z"
   id="path904" />
      <path
   fill="#804074"
   stroke="none"
   d="M 24189,14890 V 5130 h 4337 v 9760 z"
   id="path906" />
      <path
   fill="#824174"
   stroke="none"
   d="M 24288,14890 V 5130 h 4238 v 9760 z"
   id="path908" />
      <path
   fill="#844274"
   stroke="none"
   d="M 24387,14890 V 5130 h 4139 v 9760 z"
   id="path910" />
      <path
   fill="#864374"
   stroke="none"
   d="M 24485,14890 V 5130 h 4041 v 9760 z"
   id="path912" />
      <path
   fill="#894574"
   stroke="none"
   d="M 24584,14890 V 5130 h 3942 v 9760 z"
   id="path914" />
      <path
   fill="#8b4674"
   stroke="none"
   d="M 24682,14890 V 5130 h 3844 v 9760 z"
   id="path916" />
      <path
   fill="#8d4774"
   stroke="none"
   d="M 24781,14890 V 5130 h 3745 v 9760 z"
   id="path918" />
      <path
   fill="#8f4874"
   stroke="none"
   d="M 24879,14890 V 5130 h 3647 v 9760 z"
   id="path920" />
      <path
   fill="#914974"
   stroke="none"
   d="M 24978,14890 V 5130 h 3548 v 9760 z"
   id="path922" />
      <path
   fill="#934a74"
   stroke="none"
   d="M 25077,14890 V 5130 h 3449 v 9760 z"
   id="path924" />
      <path
   fill="#954b74"
   stroke="none"
   d="M 25175,14890 V 5130 h 3351 v 9760 z"
   id="path926" />
      <path
   fill="#974c75"
   stroke="none"
   d="M 25274,14890 V 5130 h 3252 v 9760 z"
   id="path928" />
      <path
   fill="#994d75"
   stroke="none"
   d="M 25372,14890 V 5130 h 3154 v 9760 z"
   id="path930" />
      <path
   fill="#9b4e75"
   stroke="none"
   d="M 25471,14890 V 5130 h 3055 v 9760 z"
   id="path932" />
      <path
   fill="#9d4f75"
   stroke="none"
   d="M 25569,14890 V 5130 h 2957 v 9760 z"
   id="path934" />
      <path
   fill="#9f5075"
   stroke="none"
   d="M 25668,14890 V 5130 h 2858 v 9760 z"
   id="path936" />
      <path
   fill="#a15175"
   stroke="none"
   d="M 25766,14890 V 5130 h 2760 v 9760 z"
   id="path938" />
      <path
   fill="#a35275"
   stroke="none"
   d="M 25865,14890 V 5130 h 2661 v 9760 z"
   id="path940" />
      <path
   fill="#a55375"
   stroke="none"
   d="M 25964,14890 V 5130 h 2562 v 9760 z"
   id="path942" />
      <path
   fill="#a75475"
   stroke="none"
   d="M 26062,14890 V 5130 h 2464 v 9760 z"
   id="path944" />
      <path
   fill="#a95575"
   stroke="none"
   d="M 26161,14890 V 5130 h 2365 v 9760 z"
   id="path946" />
      <path
   fill="#ab5675"
   stroke="none"
   d="M 26259,14890 V 5130 h 2267 v 9760 z"
   id="path948" />
      <path
   fill="#ad5775"
   stroke="none"
   d="M 26358,14890 V 5130 h 2168 v 9760 z"
   id="path950" />
      <path
   fill="#af5875"
   stroke="none"
   d="M 26456,14890 V 5130 h 2070 v 9760 z"
   id="path952" />
      <path
   fill="#b15976"
   stroke="none"
   d="M 26555,14890 V 5130 h 1971 v 9760 z"
   id="path954" />
      <path
   fill="#b35a76"
   stroke="none"
   d="M 26653,14890 V 5130 h 1873 v 9760 z"
   id="path956" />
      <path
   fill="#b55b76"
   stroke="none"
   d="M 26752,14890 V 5130 h 1774 v 9760 z"
   id="path958" />
      <path
   fill="#b75c76"
   stroke="none"
   d="M 26851,14890 V 5130 h 1675 v 9760 z"
   id="path960" />
      <path
   fill="#b95d76"
   stroke="none"
   d="M 26949,14890 V 5130 h 1577 v 9760 z"
   id="path962" />
      <path
   fill="#bb5e76"
   stroke="none"
   d="M 27048,14890 V 5130 h 1478 v 9760 z"
   id="path964" />
      <path
   fill="#bd6076"
   stroke="none"
   d="M 27146,14890 V 5130 h 1380 v 9760 z"
   id="path966" />
      <path
   fill="#bf6176"
   stroke="none"
   d="M 27245,14890 V 5130 h 1281 v 9760 z"
   id="path968" />
      <path
   fill="#c16276"
   stroke="none"
   d="M 27343,14890 V 5130 h 1183 v 9760 z"
   id="path970" />
      <path
   fill="#c36376"
   stroke="none"
   d="M 27442,14890 V 5130 h 1084 v 9760 z"
   id="path972" />
      <path
   fill="#c56476"
   stroke="none"
   d="M 27540,14890 V 5130 h 986 v 9760 z"
   id="path974" />
      <path
   fill="#c76576"
   stroke="none"
   d="M 27639,14890 V 5130 h 887 v 9760 z"
   id="path976" />
      <path
   fill="#c96676"
   stroke="none"
   d="M 27738,14890 V 5130 h 788 v 9760 z"
   id="path978" />
      <path
   fill="#cb6777"
   stroke="none"
   d="M 27836,14890 V 5130 h 690 v 9760 z"
   id="path980" />
      <path
   fill="#cd6877"
   stroke="none"
   d="M 27935,14890 V 5130 h 591 v 9760 z"
   id="path982" />
      <path
   fill="#cf6977"
   stroke="none"
   d="M 28033,14890 V 5130 h 493 v 9760 z"
   id="path984" />
      <path
   fill="#d16a77"
   stroke="none"
   d="M 28132,14890 V 5130 h 394 v 9760 z"
   id="path986" />
      <path
   fill="#d36b77"
   stroke="none"
   d="M 28230,14890 V 5130 h 296 v 9760 z"
   id="path988" />
      <path
   fill="#d56c77"
   stroke="none"
   d="M 28329,14890 V 5130 h 197 v 9760 z"
   id="path990" />
      <path
   fill="#d76d77"
   stroke="none"
   d="M 28427,14890 V 5130 h 100 v 9760 z"
   id="path992" />
     </g>
     <path
   fill="none"
   stroke="#43729d"
   stroke-width="18"
   stroke-linejoin="miter"
   d="m 20740,5130 h 3725 c 1135,0 2014,281 2639,843 696,629 1044,1428 1044,2396 0,986 -432,1818 -1295,2495 l 1674,4026 H 25480 L 24072,11743 V 9234 h 228 c 611,0 916,-262 916,-787 0,-462 -353,-693 -1059,-693 h -514 v 7136 h -2903 z"
   id="path996" />
    </g>
   </g><g
     class="com.sun.star.drawing.CustomShape"
     id="g1171">
    <g
   id="id5">
     <rect
   class="BoundingBox"
   stroke="none"
   fill="none"
   x="16521"
   y="5121"
   width="7128"
   height="9779"
   id="rect1001" />
     <defs
   id="defs1006">
      <clipPath
   id="clip_path_3"
   clipPathUnits="userSpaceOnUse">
       <path
   d="m 20277,5130 c 1144,0 1990,294 2538,882 548,588 823,1496 823,2724 v 6154 H 20734 V 8925 c 0,-372 -45,-631 -136,-775 -90,-144 -252,-216 -486,-216 -453,0 -679,330 -679,991 v 1186 h 836 v 2511 h -836 v 2268 H 16530 V 8834 c 0,-1172 327,-2082 983,-2731 655,-649 1577,-973 2764,-973 z"
   id="path1003" />
      </clipPath>
     </defs>
     <g
   clip-path="url(#clip_path_3)"
   id="g1166">
      <path
   fill="#3a1c71"
   stroke="none"
   d="m 16530,5130 h 7108 v 9760 h -7108 z"
   id="path1008" />
      <path
   fill="#3c1d71"
   stroke="none"
   d="M 16621,14890 V 5130 h 7017 v 9760 z"
   id="path1010" />
      <path
   fill="#3e1e71"
   stroke="none"
   d="M 16711,14890 V 5130 h 6927 v 9760 z"
   id="path1012" />
      <path
   fill="#401f71"
   stroke="none"
   d="M 16801,14890 V 5130 h 6837 v 9760 z"
   id="path1014" />
      <path
   fill="#422071"
   stroke="none"
   d="M 16891,14890 V 5130 h 6747 v 9760 z"
   id="path1016" />
      <path
   fill="#442171"
   stroke="none"
   d="M 16981,14890 V 5130 h 6657 v 9760 z"
   id="path1018" />
      <path
   fill="#462271"
   stroke="none"
   d="M 17071,14890 V 5130 h 6567 v 9760 z"
   id="path1020" />
      <path
   fill="#482372"
   stroke="none"
   d="M 17161,14890 V 5130 h 6477 v 9760 z"
   id="path1022" />
      <path
   fill="#4a2472"
   stroke="none"
   d="M 17251,14890 V 5130 h 6387 v 9760 z"
   id="path1024" />
      <path
   fill="#4c2572"
   stroke="none"
   d="M 17341,14890 V 5130 h 6297 v 9760 z"
   id="path1026" />
      <path
   fill="#4e2672"
   stroke="none"
   d="M 17431,14890 V 5130 h 6207 v 9760 z"
   id="path1028" />
      <path
   fill="#502772"
   stroke="none"
   d="M 17521,14890 V 5130 h 6117 v 9760 z"
   id="path1030" />
      <path
   fill="#522872"
   stroke="none"
   d="M 17611,14890 V 5130 h 6027 v 9760 z"
   id="path1032" />
      <path
   fill="#542972"
   stroke="none"
   d="M 17701,14890 V 5130 h 5937 v 9760 z"
   id="path1034" />
      <path
   fill="#562b72"
   stroke="none"
   d="M 17790,14890 V 5130 h 5848 v 9760 z"
   id="path1036" />
      <path
   fill="#582c72"
   stroke="none"
   d="M 17880,14890 V 5130 h 5758 v 9760 z"
   id="path1038" />
      <path
   fill="#5a2d72"
   stroke="none"
   d="M 17970,14890 V 5130 h 5668 v 9760 z"
   id="path1040" />
      <path
   fill="#5c2e72"
   stroke="none"
   d="M 18060,14890 V 5130 h 5578 v 9760 z"
   id="path1042" />
      <path
   fill="#5e2f72"
   stroke="none"
   d="M 18150,14890 V 5130 h 5488 v 9760 z"
   id="path1044" />
      <path
   fill="#603072"
   stroke="none"
   d="M 18240,14890 V 5130 h 5398 v 9760 z"
   id="path1046" />
      <path
   fill="#623173"
   stroke="none"
   d="M 18330,14890 V 5130 h 5308 v 9760 z"
   id="path1048" />
      <path
   fill="#643273"
   stroke="none"
   d="M 18420,14890 V 5130 h 5218 v 9760 z"
   id="path1050" />
      <path
   fill="#663373"
   stroke="none"
   d="M 18510,14890 V 5130 h 5128 v 9760 z"
   id="path1052" />
      <path
   fill="#683473"
   stroke="none"
   d="M 18600,14890 V 5130 h 5038 v 9760 z"
   id="path1054" />
      <path
   fill="#6a3573"
   stroke="none"
   d="M 18690,14890 V 5130 h 4948 v 9760 z"
   id="path1056" />
      <path
   fill="#6c3673"
   stroke="none"
   d="M 18780,14890 V 5130 h 4858 v 9760 z"
   id="path1058" />
      <path
   fill="#6e3773"
   stroke="none"
   d="M 18870,14890 V 5130 h 4768 v 9760 z"
   id="path1060" />
      <path
   fill="#703873"
   stroke="none"
   d="M 18960,14890 V 5130 h 4678 v 9760 z"
   id="path1062" />
      <path
   fill="#723973"
   stroke="none"
   d="M 19050,14890 V 5130 h 4588 v 9760 z"
   id="path1064" />
      <path
   fill="#743a73"
   stroke="none"
   d="M 19140,14890 V 5130 h 4498 v 9760 z"
   id="path1066" />
      <path
   fill="#763b73"
   stroke="none"
   d="M 19230,14890 V 5130 h 4408 v 9760 z"
   id="path1068" />
      <path
   fill="#783c73"
   stroke="none"
   d="M 19320,14890 V 5130 h 4318 v 9760 z"
   id="path1070" />
      <path
   fill="#7a3d73"
   stroke="none"
   d="M 19410,14890 V 5130 h 4228 v 9760 z"
   id="path1072" />
      <path
   fill="#7c3e74"
   stroke="none"
   d="M 19500,14890 V 5130 h 4138 v 9760 z"
   id="path1074" />
      <path
   fill="#7e3f74"
   stroke="none"
   d="M 19590,14890 V 5130 h 4048 v 9760 z"
   id="path1076" />
      <path
   fill="#804074"
   stroke="none"
   d="M 19680,14890 V 5130 h 3958 v 9760 z"
   id="path1078" />
      <path
   fill="#824174"
   stroke="none"
   d="M 19770,14890 V 5130 h 3868 v 9760 z"
   id="path1080" />
      <path
   fill="#844274"
   stroke="none"
   d="M 19860,14890 V 5130 h 3778 v 9760 z"
   id="path1082" />
      <path
   fill="#864374"
   stroke="none"
   d="M 19950,14890 V 5130 h 3688 v 9760 z"
   id="path1084" />
      <path
   fill="#894574"
   stroke="none"
   d="M 20040,14890 V 5130 h 3598 v 9760 z"
   id="path1086" />
      <path
   fill="#8b4674"
   stroke="none"
   d="M 20129,14890 V 5130 h 3509 v 9760 z"
   id="path1088" />
      <path
   fill="#8d4774"
   stroke="none"
   d="M 20219,14890 V 5130 h 3419 v 9760 z"
   id="path1090" />
      <path
   fill="#8f4874"
   stroke="none"
   d="M 20309,14890 V 5130 h 3329 v 9760 z"
   id="path1092" />
      <path
   fill="#914974"
   stroke="none"
   d="M 20399,14890 V 5130 h 3239 v 9760 z"
   id="path1094" />
      <path
   fill="#934a74"
   stroke="none"
   d="M 20489,14890 V 5130 h 3149 v 9760 z"
   id="path1096" />
      <path
   fill="#954b74"
   stroke="none"
   d="M 20579,14890 V 5130 h 3059 v 9760 z"
   id="path1098" />
      <path
   fill="#974c75"
   stroke="none"
   d="M 20669,14890 V 5130 h 2969 v 9760 z"
   id="path1100" />
      <path
   fill="#994d75"
   stroke="none"
   d="M 20759,14890 V 5130 h 2879 v 9760 z"
   id="path1102" />
      <path
   fill="#9b4e75"
   stroke="none"
   d="M 20849,14890 V 5130 h 2789 v 9760 z"
   id="path1104" />
      <path
   fill="#9d4f75"
   stroke="none"
   d="M 20939,14890 V 5130 h 2699 v 9760 z"
   id="path1106" />
      <path
   fill="#9f5075"
   stroke="none"
   d="M 21029,14890 V 5130 h 2609 v 9760 z"
   id="path1108" />
      <path
   fill="#a15175"
   stroke="none"
   d="M 21119,14890 V 5130 h 2519 v 9760 z"
   id="path1110" />
      <path
   fill="#a35275"
   stroke="none"
   d="M 21209,14890 V 5130 h 2429 v 9760 z"
   id="path1112" />
      <path
   fill="#a55375"
   stroke="none"
   d="M 21299,14890 V 5130 h 2339 v 9760 z"
   id="path1114" />
      <path
   fill="#a75475"
   stroke="none"
   d="M 21389,14890 V 5130 h 2249 v 9760 z"
   id="path1116" />
      <path
   fill="#a95575"
   stroke="none"
   d="M 21479,14890 V 5130 h 2159 v 9760 z"
   id="path1118" />
      <path
   fill="#ab5675"
   stroke="none"
   d="M 21569,14890 V 5130 h 2069 v 9760 z"
   id="path1120" />
      <path
   fill="#ad5775"
   stroke="none"
   d="M 21659,14890 V 5130 h 1979 v 9760 z"
   id="path1122" />
      <path
   fill="#af5875"
   stroke="none"
   d="M 21749,14890 V 5130 h 1889 v 9760 z"
   id="path1124" />
      <path
   fill="#b15976"
   stroke="none"
   d="M 21839,14890 V 5130 h 1799 v 9760 z"
   id="path1126" />
      <path
   fill="#b35a76"
   stroke="none"
   d="M 21929,14890 V 5130 h 1709 v 9760 z"
   id="path1128" />
      <path
   fill="#b55b76"
   stroke="none"
   d="M 22019,14890 V 5130 h 1619 v 9760 z"
   id="path1130" />
      <path
   fill="#b75c76"
   stroke="none"
   d="M 22109,14890 V 5130 h 1529 v 9760 z"
   id="path1132" />
      <path
   fill="#b95d76"
   stroke="none"
   d="M 22199,14890 V 5130 h 1439 v 9760 z"
   id="path1134" />
      <path
   fill="#bb5e76"
   stroke="none"
   d="M 22289,14890 V 5130 h 1349 v 9760 z"
   id="path1136" />
      <path
   fill="#bd6076"
   stroke="none"
   d="M 22379,14890 V 5130 h 1259 v 9760 z"
   id="path1138" />
      <path
   fill="#bf6176"
   stroke="none"
   d="M 22468,14890 V 5130 h 1170 v 9760 z"
   id="path1140" />
      <path
   fill="#c16276"
   stroke="none"
   d="M 22558,14890 V 5130 h 1080 v 9760 z"
   id="path1142" />
      <path
   fill="#c36376"
   stroke="none"
   d="M 22648,14890 V 5130 h 990 v 9760 z"
   id="path1144" />
      <path
   fill="#c56476"
   stroke="none"
   d="M 22738,14890 V 5130 h 900 v 9760 z"
   id="path1146" />
      <path
   fill="#c76576"
   stroke="none"
   d="M 22828,14890 V 5130 h 810 v 9760 z"
   id="path1148" />
      <path
   fill="#c96676"
   stroke="none"
   d="M 22918,14890 V 5130 h 720 v 9760 z"
   id="path1150" />
      <path
   fill="#cb6777"
   stroke="none"
   d="M 23008,14890 V 5130 h 630 v 9760 z"
   id="path1152" />
      <path
   fill="#cd6877"
   stroke="none"
   d="M 23098,14890 V 5130 h 540 v 9760 z"
   id="path1154" />
      <path
   fill="#cf6977"
   stroke="none"
   d="M 23188,14890 V 5130 h 450 v 9760 z"
   id="path1156" />
      <path
   fill="#d16a77"
   stroke="none"
   d="M 23278,14890 V 5130 h 360 v 9760 z"
   id="path1158" />
      <path
   fill="#d36b77"
   stroke="none"
   d="M 23368,14890 V 5130 h 270 v 9760 z"
   id="path1160" />
      <path
   fill="#d56c77"
   stroke="none"
   d="M 23458,14890 V 5130 h 180 v 9760 z"
   id="path1162" />
      <path
   fill="#d76d77"
   stroke="none"
   d="M 23548,14890 V 5130 h 90 v 9760 z"
   id="path1164" />
     </g>
     <path
   fill="none"
   stroke="#43729d"
   stroke-width="18"
   stroke-linejoin="miter"
   d="m 20277,5130 c 1144,0 1990,294 2538,882 548,588 823,1496 823,2724 v 6154 H 20734 V 8925 c 0,-372 -45,-631 -136,-775 -90,-144 -252,-216 -486,-216 -453,0 -679,330 -679,991 v 1186 h 836 v 2511 h -836 v 2268 H 16530 V 8834 c 0,-1172 327,-2082 983,-2731 655,-649 1577,-973 2764,-973 z"
   id="path1168" />
    </g>
   </g></g><g
   id="g1862"
   transform="translate(7557.5)"
   style="stroke-width:28.222;stroke-miterlimit:4;stroke-dasharray:none"
   inkscape:export-filename="/home/philippe/Desktop/nft4Art/public/nftIco.png"
   inkscape:export-xdpi="96"
   inkscape:export-ydpi="96"><g
     class="com.sun.star.drawing.CustomShape"
     id="g1178"
     transform="translate(168)"
     style="stroke-width:28.222;stroke-miterlimit:4;stroke-dasharray:none">
    <g
   id="id6"
   style="stroke-width:28.222;stroke-miterlimit:4;stroke-dasharray:none">
     <rect
   class="BoundingBox"
   stroke="none"
   fill="none"
   x="13502"
   y="6689"
   width="3668"
   height="8226"
   id="rect1173"
   style="stroke-width:28.222;stroke-miterlimit:4;stroke-dasharray:none" />
     <path
   fill="#000000"
   stroke="none"
   d="m 15948,9336 -2026,3504 h 2236 V 9336 Z m 1099,-2647 c -627,1342 -467,2166 -484,2242 v 3909 h 334 c 98,0 168,18 210,55 41,36 62,85 62,145 0,57 -21,105 -62,143 -42,38 -112,57 -210,57 h -334 v 1273 h 334 c 98,0 168,18 210,55 41,36 62,85 62,145 0,57 -21,105 -62,143 -42,38 -112,58 -210,58 h -1488 c -98,0 -168,-20 -209,-58 -42,-38 -62,-86 -62,-143 0,-60 20,-109 62,-145 41,-37 111,-55 209,-55 h 749 v -1273 h -2655 v -462 z"
   id="path1175"
   style="stroke-width:28.222;stroke-miterlimit:4;stroke-dasharray:none;fill:#202020;fill-opacity:0.75071281" />
    </g>
   </g><g
     class="com.sun.star.drawing.CustomShape"
     id="g1185"
     transform="translate(168)"
     style="stroke-width:28.222;stroke-miterlimit:4;stroke-dasharray:none">
    <g
   id="id7"
   style="stroke-width:28.222;stroke-miterlimit:4;stroke-dasharray:none">
     <rect
   class="BoundingBox"
   stroke="none"
   fill="none"
   x="1433"
   y="7505"
   width="12337"
   height="6141"
   id="rect1180"
   style="stroke-width:28.222;stroke-miterlimit:4;stroke-dasharray:none" />
     <path
   fill="#000000"
   stroke="none"
   d="m 8518,7505 c 378,0 782,34 1211,104 162,26 260,56 293,91 33,35 50,81 50,138 0,57 -19,104 -57,141 -38,36 -89,55 -153,55 -25,0 -68,-5 -128,-15 -480,-73 -885,-109 -1216,-109 -349,0 -619,86 -808,257 -189,172 -284,367 -284,586 v 606 h 2882 V 8177 c 0,-96 19,-164 57,-205 38,-42 86,-62 143,-62 60,0 109,20 148,62 38,41 57,109 57,205 v 1182 h 2174 c 95,0 163,19 205,57 41,38 61,87 61,148 0,57 -20,105 -61,143 -42,38 -110,57 -205,57 h -2174 v 2665 c 0,232 93,426 279,581 186,156 458,234 817,234 270,0 563,-40 877,-121 315,-82 560,-173 734,-275 64,-41 143,-187 184,-187 51,0 80,131 107,185 28,54 59,98 57,141 -1,42 -29,70 -68,113 -82,92 -424,270 -735,361 -310,91 -768,184 -1127,184 -467,0 -839,-110 -1116,-329 -276,-220 -414,-515 -414,-887 V 9764 H 7426 v 3323 h 1759 c 96,0 164,18 205,55 42,36 62,85 62,145 0,57 -20,105 -62,143 -41,38 -109,57 -205,57 H 4874 c -98,0 -168,-19 -210,-57 -41,-38 -61,-86 -61,-143 0,-60 20,-109 61,-145 42,-37 112,-55 210,-55 h 334 v -2455 c 0,-283 -103,-522 -310,-718 -206,-195 -483,-293 -829,-293 -264,0 -493,53 -687,160 -194,106 -470,371 -829,793 v 2513 h 453 c 95,0 163,18 205,55 41,36 62,85 62,145 0,57 -21,105 -62,143 -42,38 -110,57 -205,57 H 1699 c -95,0 -163,-19 -205,-57 -41,-38 -61,-86 -61,-143 0,-60 20,-109 61,-145 42,-37 110,-55 205,-55 h 453 V 9764 h -338 c -95,0 -164,-19 -205,-57 -41,-38 -62,-88 -62,-148 0,-57 21,-105 62,-143 41,-38 110,-57 205,-57 h 739 v 605 c 279,-283 532,-478 758,-586 225,-108 480,-162 762,-162 305,0 584,65 835,195 178,96 339,254 483,475 145,221 217,447 217,679 v 2522 H 7021 V 9764 h -867 c -96,0 -164,-19 -205,-57 -42,-38 -62,-88 -62,-148 0,-57 20,-105 62,-143 41,-38 109,-57 205,-57 h 867 v -606 c 0,-336 137,-629 410,-877 274,-248 636,-371 1087,-371 z"
   id="path1182"
   style="stroke-width:28.222;stroke-miterlimit:4;stroke-dasharray:none;fill:#202020;fill-opacity:0.75" />
    </g>
   </g></g>
 </g>
</svg>
